<mxfile host="app.diagrams.net" agent="Mozilla/5.0 (Windows NT 10.0; Win64; x64) AppleWebKit/537.36 (KHTML, like Gecko) Chrome/139.0.0.0 Safari/537.36" version="28.2.1">
  <diagram name="Page-1" id="Yr3wmhPyhH4pKssoKZmy">
    <mxGraphModel dx="366055" dy="257780" grid="1" gridSize="10" guides="1" tooltips="1" connect="1" arrows="1" fold="1" page="1" pageScale="1" pageWidth="827" pageHeight="1169" math="0" shadow="0">
      <root>
        <mxCell id="0" />
        <mxCell id="1" parent="0" />
        <mxCell id="-tIWeldv7K33fmmHnPlr-62" style="edgeStyle=orthogonalEdgeStyle;rounded=0;orthogonalLoop=1;jettySize=auto;html=1;exitX=0;exitY=0.5;exitDx=0;exitDy=0;entryX=1;entryY=0.5;entryDx=0;entryDy=0;strokeColor=light-dark(#000000,#FFFFFF);" edge="1" parent="1" source="-tIWeldv7K33fmmHnPlr-6" target="-tIWeldv7K33fmmHnPlr-7">
          <mxGeometry relative="1" as="geometry" />
        </mxCell>
        <mxCell id="-tIWeldv7K33fmmHnPlr-1" value="Cliente" style="rounded=1;whiteSpace=wrap;html=1;fillColor=light-dark(#4FC3F7,#4FC3F7);strokeColor=light-dark(#000000,#FFFFFF);" vertex="1" parent="1">
          <mxGeometry x="170" y="-270" width="120" height="60" as="geometry" />
        </mxCell>
        <mxCell id="-tIWeldv7K33fmmHnPlr-34" style="edgeStyle=orthogonalEdgeStyle;rounded=0;orthogonalLoop=1;jettySize=auto;html=1;exitX=0.5;exitY=1;exitDx=0;exitDy=0;entryX=0.5;entryY=0;entryDx=0;entryDy=0;strokeColor=light-dark(#000000,#FFFFFF);" edge="1" parent="1" source="-tIWeldv7K33fmmHnPlr-2" target="-tIWeldv7K33fmmHnPlr-4">
          <mxGeometry relative="1" as="geometry" />
        </mxCell>
        <mxCell id="-tIWeldv7K33fmmHnPlr-39" style="edgeStyle=orthogonalEdgeStyle;rounded=0;orthogonalLoop=1;jettySize=auto;html=1;exitX=0.5;exitY=1;exitDx=0;exitDy=0;entryX=0.5;entryY=0;entryDx=0;entryDy=0;strokeColor=light-dark(#000000,#FFFFFF);" edge="1" parent="1" source="-tIWeldv7K33fmmHnPlr-2" target="-tIWeldv7K33fmmHnPlr-35">
          <mxGeometry relative="1" as="geometry" />
        </mxCell>
        <mxCell id="-tIWeldv7K33fmmHnPlr-2" value="API Gateway" style="rounded=1;whiteSpace=wrap;html=1;fillColor=light-dark(#1565C0,#1565C0);strokeColor=light-dark(#000000,#FFFFFF);shadow=1;" vertex="1" parent="1">
          <mxGeometry x="160" y="-140" width="140" height="60" as="geometry" />
        </mxCell>
        <mxCell id="-tIWeldv7K33fmmHnPlr-3" value="HTTPS/API Requests" style="edgeStyle=none;html=1;endArrow=classic;endFill=1;fontSize=12;exitX=0.5;exitY=1;exitDx=0;exitDy=0;strokeColor=light-dark(#000000,#FFFFFF);" edge="1" parent="1" source="-tIWeldv7K33fmmHnPlr-1" target="-tIWeldv7K33fmmHnPlr-2">
          <mxGeometry width="50" height="50" relative="1" as="geometry">
            <mxPoint x="330" y="-30" as="sourcePoint" />
            <mxPoint x="380" y="20" as="targetPoint" />
          </mxGeometry>
        </mxCell>
        <mxCell id="-tIWeldv7K33fmmHnPlr-51" style="edgeStyle=orthogonalEdgeStyle;rounded=0;orthogonalLoop=1;jettySize=auto;html=1;exitX=0.5;exitY=1;exitDx=0;exitDy=0;entryX=0.5;entryY=0;entryDx=0;entryDy=0;strokeColor=light-dark(#000000,#FFFFFF);" edge="1" parent="1" source="-tIWeldv7K33fmmHnPlr-4" target="-tIWeldv7K33fmmHnPlr-7">
          <mxGeometry relative="1" as="geometry" />
        </mxCell>
        <mxCell id="-tIWeldv7K33fmmHnPlr-59" style="edgeStyle=orthogonalEdgeStyle;rounded=0;orthogonalLoop=1;jettySize=auto;html=1;exitX=0.5;exitY=1;exitDx=0;exitDy=0;entryX=0;entryY=0.5;entryDx=0;entryDy=0;strokeColor=light-dark(#000000,#FFFFFF);" edge="1" parent="1" source="-tIWeldv7K33fmmHnPlr-4" target="-tIWeldv7K33fmmHnPlr-52">
          <mxGeometry relative="1" as="geometry" />
        </mxCell>
        <mxCell id="-tIWeldv7K33fmmHnPlr-4" value="&lt;div&gt;/Auth Service&lt;br&gt;Autenticación de Usuario&lt;br&gt;&lt;br&gt;&lt;/div&gt;" style="rounded=1;whiteSpace=wrap;html=1;fillColor=light-dark(#43A047,#43A047);strokeColor=light-dark(#000000,#FFFFFF);" vertex="1" parent="1">
          <mxGeometry x="-160" y="10" width="190" height="60" as="geometry" />
        </mxCell>
        <mxCell id="-tIWeldv7K33fmmHnPlr-53" style="edgeStyle=orthogonalEdgeStyle;rounded=0;orthogonalLoop=1;jettySize=auto;html=1;exitX=0.5;exitY=1;exitDx=0;exitDy=0;entryX=0.5;entryY=0;entryDx=0;entryDy=0;strokeColor=light-dark(#000000,#FFFFFF);" edge="1" parent="1" source="-tIWeldv7K33fmmHnPlr-5" target="-tIWeldv7K33fmmHnPlr-52">
          <mxGeometry relative="1" as="geometry" />
        </mxCell>
        <mxCell id="-tIWeldv7K33fmmHnPlr-61" style="edgeStyle=orthogonalEdgeStyle;rounded=0;orthogonalLoop=1;jettySize=auto;html=1;exitX=0;exitY=0.5;exitDx=0;exitDy=0;strokeColor=light-dark(#000000,#FFFFFF);" edge="1" parent="1" source="-tIWeldv7K33fmmHnPlr-5" target="-tIWeldv7K33fmmHnPlr-7">
          <mxGeometry relative="1" as="geometry" />
        </mxCell>
        <mxCell id="-tIWeldv7K33fmmHnPlr-5" value="/User Service&lt;br&gt;Gestión de Usuarios" style="rounded=1;whiteSpace=wrap;html=1;fillColor=light-dark(#43A047,#43A047);strokeColor=light-dark(#000000,#FFFFFF);" vertex="1" parent="1">
          <mxGeometry x="40" y="160" width="120" height="60" as="geometry" />
        </mxCell>
        <mxCell id="-tIWeldv7K33fmmHnPlr-54" style="edgeStyle=orthogonalEdgeStyle;rounded=0;orthogonalLoop=1;jettySize=auto;html=1;exitX=0.5;exitY=1;exitDx=0;exitDy=0;entryX=0.5;entryY=0;entryDx=0;entryDy=0;strokeColor=light-dark(#000000,#FFFFFF);" edge="1" parent="1" source="-tIWeldv7K33fmmHnPlr-6" target="-tIWeldv7K33fmmHnPlr-52">
          <mxGeometry relative="1" as="geometry" />
        </mxCell>
        <mxCell id="-tIWeldv7K33fmmHnPlr-6" value="/Role Service&lt;br&gt;Gestión de Roles" style="rounded=1;whiteSpace=wrap;html=1;fillColor=light-dark(#43A047,#43A047);strokeColor=light-dark(#000000,#FFFFFF);" vertex="1" parent="1">
          <mxGeometry x="330" y="160" width="120" height="60" as="geometry" />
        </mxCell>
        <mxCell id="-tIWeldv7K33fmmHnPlr-32" style="edgeStyle=orthogonalEdgeStyle;rounded=0;orthogonalLoop=1;jettySize=auto;html=1;exitX=0.5;exitY=1;exitDx=0;exitDy=0;strokeColor=light-dark(#000000,#FFFFFF);" edge="1" parent="1" source="-tIWeldv7K33fmmHnPlr-7" target="-tIWeldv7K33fmmHnPlr-15">
          <mxGeometry relative="1" as="geometry" />
        </mxCell>
        <mxCell id="-tIWeldv7K33fmmHnPlr-7" value="/Audit Service&lt;br&gt;Auditoría" style="rounded=1;whiteSpace=wrap;html=1;fillColor=light-dark(#43A047,#43A047);strokeColor=light-dark(#000000,#FFFFFF);" vertex="1" parent="1">
          <mxGeometry x="-330" y="160" width="120" height="60" as="geometry" />
        </mxCell>
        <mxCell id="-tIWeldv7K33fmmHnPlr-15" value="No SQL Database" style="shape=cylinder;whiteSpace=wrap;html=1;boundedLbl=1;backgroundOutline=1;fillColor=light-dark(#7E57C2,#7E57C2);strokeColor=light-dark(#000000,#FFFFFF);" vertex="1" parent="1">
          <mxGeometry x="-330" y="330" width="120" height="60" as="geometry" />
        </mxCell>
        <mxCell id="-tIWeldv7K33fmmHnPlr-16" value="" style="edgeStyle=none;html=1;endArrow=classic;endFill=1;" edge="1" parent="1" source="-tIWeldv7K33fmmHnPlr-4" target="-tIWeldv7K33fmmHnPlr-12" />
        <mxCell id="-tIWeldv7K33fmmHnPlr-17" value="" style="edgeStyle=none;html=1;endArrow=classic;endFill=1;" edge="1" parent="1" source="-tIWeldv7K33fmmHnPlr-5" target="-tIWeldv7K33fmmHnPlr-13" />
        <mxCell id="-tIWeldv7K33fmmHnPlr-18" value="" style="edgeStyle=none;html=1;endArrow=classic;endFill=1;" edge="1" parent="1" source="-tIWeldv7K33fmmHnPlr-6" target="-tIWeldv7K33fmmHnPlr-14" />
        <mxCell id="-tIWeldv7K33fmmHnPlr-19" value="" style="edgeStyle=none;html=1;endArrow=classic;endFill=1;" edge="1" parent="1" source="-tIWeldv7K33fmmHnPlr-7" target="-tIWeldv7K33fmmHnPlr-15" />
        <mxCell id="-tIWeldv7K33fmmHnPlr-41" style="edgeStyle=orthogonalEdgeStyle;rounded=0;orthogonalLoop=1;jettySize=auto;html=1;exitX=0.5;exitY=1;exitDx=0;exitDy=0;strokeColor=light-dark(#000000,#FFFFFF);" edge="1" parent="1" source="-tIWeldv7K33fmmHnPlr-35" target="-tIWeldv7K33fmmHnPlr-5">
          <mxGeometry relative="1" as="geometry" />
        </mxCell>
        <mxCell id="-tIWeldv7K33fmmHnPlr-42" style="edgeStyle=orthogonalEdgeStyle;rounded=0;orthogonalLoop=1;jettySize=auto;html=1;exitX=0.5;exitY=1;exitDx=0;exitDy=0;entryX=0.5;entryY=0;entryDx=0;entryDy=0;strokeColor=light-dark(#000000,#FFFFFF);" edge="1" parent="1" source="-tIWeldv7K33fmmHnPlr-35" target="-tIWeldv7K33fmmHnPlr-6">
          <mxGeometry relative="1" as="geometry" />
        </mxCell>
        <mxCell id="-tIWeldv7K33fmmHnPlr-35" value="Autorización de usuario&lt;br&gt;&lt;div&gt;Middleware&lt;br&gt;&lt;/div&gt;" style="rounded=1;whiteSpace=wrap;html=1;fillColor=light-dark(#1565C0,#1565C0);strokeColor=light-dark(#000000,#FFFFFF);" vertex="1" parent="1">
          <mxGeometry x="155" y="10" width="150" height="60" as="geometry" />
        </mxCell>
        <mxCell id="-tIWeldv7K33fmmHnPlr-52" value="SQL Database" style="shape=cylinder;whiteSpace=wrap;html=1;boundedLbl=1;backgroundOutline=1;fillColor=light-dark(#7E57C2,#7E57C2);strokeColor=light-dark(#000000,#FFFFFF);" vertex="1" parent="1">
          <mxGeometry x="200" y="330" width="120" height="60" as="geometry" />
        </mxCell>
      </root>
    </mxGraphModel>
  </diagram>
</mxfile>
